<mxfile host="app.diagrams.net" modified="2022-08-08T12:01:34.521Z" agent="5.0 (Macintosh; Intel Mac OS X 10_15_7) AppleWebKit/537.36 (KHTML, like Gecko) Chrome/103.0.0.0 Safari/537.36" etag="EMnMRvJOgvzbKNzrGCBb" version="20.2.3" type="github">
  <diagram id="xu4CyOreJyOZfyECbtHa" name="第 1 页">
    <mxGraphModel dx="1298" dy="2035" grid="1" gridSize="10" guides="1" tooltips="1" connect="1" arrows="1" fold="1" page="1" pageScale="1" pageWidth="827" pageHeight="1169" math="0" shadow="0">
      <root>
        <mxCell id="0" />
        <mxCell id="1" parent="0" />
        <mxCell id="-9yBFDYetZPaC8PrOKNb-6" value="LR实时模型" style="rounded=0;whiteSpace=wrap;html=1;" vertex="1" parent="1">
          <mxGeometry x="100" y="-150" width="120" height="60" as="geometry" />
        </mxCell>
        <mxCell id="-9yBFDYetZPaC8PrOKNb-7" value="2019.5.17" style="rounded=0;whiteSpace=wrap;html=1;" vertex="1" parent="1">
          <mxGeometry x="30" y="-150" width="70" height="60" as="geometry" />
        </mxCell>
        <mxCell id="-9yBFDYetZPaC8PrOKNb-8" value="https://km.sankuai.com/page/157213018" style="rounded=0;whiteSpace=wrap;html=1;" vertex="1" parent="1">
          <mxGeometry x="220" y="-140" width="220" height="40" as="geometry" />
        </mxCell>
        <mxCell id="-9yBFDYetZPaC8PrOKNb-9" value="xgb模型" style="rounded=0;whiteSpace=wrap;html=1;" vertex="1" parent="1">
          <mxGeometry x="100" y="130" width="120" height="60" as="geometry" />
        </mxCell>
        <mxCell id="-9yBFDYetZPaC8PrOKNb-10" value="2019.11.12" style="rounded=0;whiteSpace=wrap;html=1;" vertex="1" parent="1">
          <mxGeometry x="30" y="130" width="70" height="60" as="geometry" />
        </mxCell>
        <mxCell id="-9yBFDYetZPaC8PrOKNb-11" value="https://km.sankuai.com/page/147427460" style="rounded=0;whiteSpace=wrap;html=1;" vertex="1" parent="1">
          <mxGeometry x="220" y="140" width="220" height="40" as="geometry" />
        </mxCell>
        <mxCell id="-9yBFDYetZPaC8PrOKNb-12" value="高价值用户豁免" style="rounded=0;whiteSpace=wrap;html=1;" vertex="1" parent="1">
          <mxGeometry x="110" y="550" width="120" height="60" as="geometry" />
        </mxCell>
        <mxCell id="-9yBFDYetZPaC8PrOKNb-13" value="2021.05.03" style="rounded=0;whiteSpace=wrap;html=1;" vertex="1" parent="1">
          <mxGeometry x="40" y="550" width="70" height="60" as="geometry" />
        </mxCell>
        <mxCell id="-9yBFDYetZPaC8PrOKNb-14" value="https://km.sankuai.com/page/664985462" style="rounded=0;whiteSpace=wrap;html=1;" vertex="1" parent="1">
          <mxGeometry x="230" y="560" width="220" height="40" as="geometry" />
        </mxCell>
        <mxCell id="-9yBFDYetZPaC8PrOKNb-18" value="xgb模型+实时特征" style="rounded=0;whiteSpace=wrap;html=1;" vertex="1" parent="1">
          <mxGeometry x="110" y="700" width="120" height="60" as="geometry" />
        </mxCell>
        <mxCell id="-9yBFDYetZPaC8PrOKNb-19" value="2021.09.11" style="rounded=0;whiteSpace=wrap;html=1;" vertex="1" parent="1">
          <mxGeometry x="40" y="700" width="70" height="60" as="geometry" />
        </mxCell>
        <mxCell id="-9yBFDYetZPaC8PrOKNb-20" value="https://km.sankuai.com/page/147427460" style="rounded=0;whiteSpace=wrap;html=1;" vertex="1" parent="1">
          <mxGeometry x="230" y="710" width="220" height="40" as="geometry" />
        </mxCell>
        <mxCell id="-9yBFDYetZPaC8PrOKNb-21" value="dnn+金融分特征" style="rounded=0;whiteSpace=wrap;html=1;" vertex="1" parent="1">
          <mxGeometry x="650" y="340" width="120" height="60" as="geometry" />
        </mxCell>
        <mxCell id="-9yBFDYetZPaC8PrOKNb-22" value="2020.11.20" style="rounded=0;whiteSpace=wrap;html=1;" vertex="1" parent="1">
          <mxGeometry x="580" y="340" width="70" height="60" as="geometry" />
        </mxCell>
        <mxCell id="-9yBFDYetZPaC8PrOKNb-23" value="https://km.sankuai.com/page/450939802" style="rounded=0;whiteSpace=wrap;html=1;" vertex="1" parent="1">
          <mxGeometry x="770" y="350" width="220" height="40" as="geometry" />
        </mxCell>
        <mxCell id="-9yBFDYetZPaC8PrOKNb-30" value="catboost &lt;br&gt;免密预付接受度预测" style="rounded=0;whiteSpace=wrap;html=1;" vertex="1" parent="1">
          <mxGeometry x="100" y="200" width="120" height="60" as="geometry" />
        </mxCell>
        <mxCell id="-9yBFDYetZPaC8PrOKNb-31" value="2019.12.27" style="rounded=0;whiteSpace=wrap;html=1;" vertex="1" parent="1">
          <mxGeometry x="30" y="200" width="70" height="60" as="geometry" />
        </mxCell>
        <mxCell id="-9yBFDYetZPaC8PrOKNb-32" value="https://km.sankuai.com/page/239680078" style="rounded=0;whiteSpace=wrap;html=1;" vertex="1" parent="1">
          <mxGeometry x="220" y="210" width="220" height="40" as="geometry" />
        </mxCell>
        <mxCell id="-9yBFDYetZPaC8PrOKNb-33" value="免密预付+dnnv4&lt;br&gt;全景数据补齐" style="rounded=0;whiteSpace=wrap;html=1;" vertex="1" parent="1">
          <mxGeometry x="650" y="260" width="120" height="60" as="geometry" />
        </mxCell>
        <mxCell id="-9yBFDYetZPaC8PrOKNb-34" value="2020.09.30" style="rounded=0;whiteSpace=wrap;html=1;" vertex="1" parent="1">
          <mxGeometry x="580" y="260" width="70" height="60" as="geometry" />
        </mxCell>
        <mxCell id="-9yBFDYetZPaC8PrOKNb-35" value="https://km.sankuai.com/page/605934909" style="rounded=0;whiteSpace=wrap;html=1;" vertex="1" parent="1">
          <mxGeometry x="770" y="270" width="220" height="40" as="geometry" />
        </mxCell>
        <mxCell id="-9yBFDYetZPaC8PrOKNb-36" value="免密预付+dnnv5&lt;br&gt;点评美团特征更新" style="rounded=0;whiteSpace=wrap;html=1;" vertex="1" parent="1">
          <mxGeometry x="650" y="420" width="120" height="60" as="geometry" />
        </mxCell>
        <mxCell id="-9yBFDYetZPaC8PrOKNb-37" value="2020.12.09" style="rounded=0;whiteSpace=wrap;html=1;" vertex="1" parent="1">
          <mxGeometry x="580" y="420" width="70" height="60" as="geometry" />
        </mxCell>
        <mxCell id="-9yBFDYetZPaC8PrOKNb-38" value="https://km.sankuai.com/page/605944818" style="rounded=0;whiteSpace=wrap;html=1;" vertex="1" parent="1">
          <mxGeometry x="770" y="430" width="220" height="40" as="geometry" />
        </mxCell>
        <mxCell id="-9yBFDYetZPaC8PrOKNb-39" value="免密预付+dnnv6&lt;br&gt;序列特征更新" style="rounded=0;whiteSpace=wrap;html=1;" vertex="1" parent="1">
          <mxGeometry x="110" y="490" width="120" height="60" as="geometry" />
        </mxCell>
        <mxCell id="-9yBFDYetZPaC8PrOKNb-40" value="2021.03.21" style="rounded=0;whiteSpace=wrap;html=1;" vertex="1" parent="1">
          <mxGeometry x="40" y="490" width="70" height="60" as="geometry" />
        </mxCell>
        <mxCell id="-9yBFDYetZPaC8PrOKNb-41" value="https://km.sankuai.com/page/693908816" style="rounded=0;whiteSpace=wrap;html=1;" vertex="1" parent="1">
          <mxGeometry x="230" y="500" width="220" height="40" as="geometry" />
        </mxCell>
        <mxCell id="-9yBFDYetZPaC8PrOKNb-42" value="免密预付+dnnv7&lt;br&gt;多平台特征更新+模型降级dnnv5" style="rounded=0;whiteSpace=wrap;html=1;" vertex="1" parent="1">
          <mxGeometry x="110" y="610" width="120" height="60" as="geometry" />
        </mxCell>
        <mxCell id="-9yBFDYetZPaC8PrOKNb-43" value="2021.07.28" style="rounded=0;whiteSpace=wrap;html=1;" vertex="1" parent="1">
          <mxGeometry x="40" y="610" width="70" height="60" as="geometry" />
        </mxCell>
        <mxCell id="-9yBFDYetZPaC8PrOKNb-44" value="https://km.sankuai.com/page/1026596957" style="rounded=0;whiteSpace=wrap;html=1;" vertex="1" parent="1">
          <mxGeometry x="230" y="620" width="220" height="40" as="geometry" />
        </mxCell>
        <mxCell id="-9yBFDYetZPaC8PrOKNb-45" value="全景数据特征引入" style="rounded=0;whiteSpace=wrap;html=1;" vertex="1" parent="1">
          <mxGeometry x="650" y="180" width="120" height="60" as="geometry" />
        </mxCell>
        <mxCell id="-9yBFDYetZPaC8PrOKNb-46" value="2020.09.18" style="rounded=0;whiteSpace=wrap;html=1;" vertex="1" parent="1">
          <mxGeometry x="580" y="180" width="70" height="60" as="geometry" />
        </mxCell>
        <mxCell id="-9yBFDYetZPaC8PrOKNb-47" value="https://km.sankuai.com/page/450658172" style="rounded=0;whiteSpace=wrap;html=1;" vertex="1" parent="1">
          <mxGeometry x="770" y="190" width="220" height="40" as="geometry" />
        </mxCell>
        <mxCell id="-9yBFDYetZPaC8PrOKNb-48" value="新城MLP模型&lt;br&gt;迁移学习" style="rounded=0;whiteSpace=wrap;html=1;" vertex="1" parent="1">
          <mxGeometry x="100" y="-80" width="120" height="60" as="geometry" />
        </mxCell>
        <mxCell id="-9yBFDYetZPaC8PrOKNb-49" value="2019.7.26" style="rounded=0;whiteSpace=wrap;html=1;" vertex="1" parent="1">
          <mxGeometry x="30" y="-80" width="70" height="60" as="geometry" />
        </mxCell>
        <mxCell id="-9yBFDYetZPaC8PrOKNb-50" value="https://km.sankuai.com/page/180915489" style="rounded=0;whiteSpace=wrap;html=1;" vertex="1" parent="1">
          <mxGeometry x="220" y="-70" width="220" height="40" as="geometry" />
        </mxCell>
        <mxCell id="-9yBFDYetZPaC8PrOKNb-51" value="新城xgb新用户" style="rounded=0;whiteSpace=wrap;html=1;" vertex="1" parent="1">
          <mxGeometry x="100" y="-10" width="120" height="60" as="geometry" />
        </mxCell>
        <mxCell id="-9yBFDYetZPaC8PrOKNb-52" value="2019.7.26" style="rounded=0;whiteSpace=wrap;html=1;" vertex="1" parent="1">
          <mxGeometry x="30" y="-10" width="70" height="60" as="geometry" />
        </mxCell>
        <mxCell id="-9yBFDYetZPaC8PrOKNb-53" value="https://km.sankuai.com/page/180915489" style="rounded=0;whiteSpace=wrap;html=1;" vertex="1" parent="1">
          <mxGeometry x="220" width="220" height="40" as="geometry" />
        </mxCell>
        <mxCell id="-9yBFDYetZPaC8PrOKNb-54" value="新城/重点城市&lt;br&gt;实时dnn模型" style="rounded=0;whiteSpace=wrap;html=1;" vertex="1" parent="1">
          <mxGeometry x="650" y="-50" width="120" height="60" as="geometry" />
        </mxCell>
        <mxCell id="-9yBFDYetZPaC8PrOKNb-55" value="2020.5.06" style="rounded=0;whiteSpace=wrap;html=1;" vertex="1" parent="1">
          <mxGeometry x="580" y="-50" width="70" height="60" as="geometry" />
        </mxCell>
        <mxCell id="-9yBFDYetZPaC8PrOKNb-56" value="https://km.sankuai.com/page/211924603" style="rounded=0;whiteSpace=wrap;html=1;" vertex="1" parent="1">
          <mxGeometry x="770" y="-40" width="220" height="40" as="geometry" />
        </mxCell>
        <mxCell id="-9yBFDYetZPaC8PrOKNb-57" value="LR特征筛选" style="rounded=0;whiteSpace=wrap;html=1;" vertex="1" parent="1">
          <mxGeometry x="100" y="60" width="120" height="60" as="geometry" />
        </mxCell>
        <mxCell id="-9yBFDYetZPaC8PrOKNb-58" value="2019.08.16" style="rounded=0;whiteSpace=wrap;html=1;" vertex="1" parent="1">
          <mxGeometry x="30" y="60" width="70" height="60" as="geometry" />
        </mxCell>
        <mxCell id="-9yBFDYetZPaC8PrOKNb-59" value="https://km.sankuai.com/page/188079622" style="rounded=0;whiteSpace=wrap;html=1;" vertex="1" parent="1">
          <mxGeometry x="220" y="70" width="220" height="40" as="geometry" />
        </mxCell>
        <mxCell id="-9yBFDYetZPaC8PrOKNb-60" value="catboost&lt;br&gt;预付接受度+双选" style="rounded=0;whiteSpace=wrap;html=1;" vertex="1" parent="1">
          <mxGeometry x="650" y="-120" width="120" height="60" as="geometry" />
        </mxCell>
        <mxCell id="-9yBFDYetZPaC8PrOKNb-61" value="2020.3.31" style="rounded=0;whiteSpace=wrap;html=1;" vertex="1" parent="1">
          <mxGeometry x="580" y="-120" width="70" height="60" as="geometry" />
        </mxCell>
        <mxCell id="-9yBFDYetZPaC8PrOKNb-62" value="https://km.sankuai.com/page/298827101" style="rounded=0;whiteSpace=wrap;html=1;" vertex="1" parent="1">
          <mxGeometry x="770" y="-110" width="220" height="40" as="geometry" />
        </mxCell>
        <mxCell id="-9yBFDYetZPaC8PrOKNb-66" value="免密锁款成功率" style="rounded=0;whiteSpace=wrap;html=1;" vertex="1" parent="1">
          <mxGeometry x="650" y="15" width="120" height="60" as="geometry" />
        </mxCell>
        <mxCell id="-9yBFDYetZPaC8PrOKNb-67" value="2020.6.06" style="rounded=0;whiteSpace=wrap;html=1;" vertex="1" parent="1">
          <mxGeometry x="580" y="15" width="70" height="60" as="geometry" />
        </mxCell>
        <mxCell id="-9yBFDYetZPaC8PrOKNb-68" value="https://km.sankuai.com/page/328014698" style="rounded=0;whiteSpace=wrap;html=1;" vertex="1" parent="1">
          <mxGeometry x="770" y="25" width="220" height="40" as="geometry" />
        </mxCell>
        <mxCell id="-9yBFDYetZPaC8PrOKNb-72" value="dnnv3+新老城&lt;br&gt;数据一起训练" style="rounded=0;whiteSpace=wrap;html=1;" vertex="1" parent="1">
          <mxGeometry x="650" y="90" width="120" height="60" as="geometry" />
        </mxCell>
        <mxCell id="-9yBFDYetZPaC8PrOKNb-73" value="2020.6.23" style="rounded=0;whiteSpace=wrap;html=1;" vertex="1" parent="1">
          <mxGeometry x="580" y="90" width="70" height="60" as="geometry" />
        </mxCell>
        <mxCell id="-9yBFDYetZPaC8PrOKNb-74" value="https://km.sankuai.com/page/367784207" style="rounded=0;whiteSpace=wrap;html=1;" vertex="1" parent="1">
          <mxGeometry x="770" y="100" width="220" height="40" as="geometry" />
        </mxCell>
        <mxCell id="-9yBFDYetZPaC8PrOKNb-75" value="dnnv1" style="rounded=0;whiteSpace=wrap;html=1;" vertex="1" parent="1">
          <mxGeometry x="650" y="-200" width="120" height="60" as="geometry" />
        </mxCell>
        <mxCell id="-9yBFDYetZPaC8PrOKNb-76" value="2020.02.03" style="rounded=0;whiteSpace=wrap;html=1;" vertex="1" parent="1">
          <mxGeometry x="580" y="-200" width="70" height="60" as="geometry" />
        </mxCell>
        <mxCell id="-9yBFDYetZPaC8PrOKNb-77" value="https://km.sankuai.com/page/296788225" style="rounded=0;whiteSpace=wrap;html=1;" vertex="1" parent="1">
          <mxGeometry x="770" y="-190" width="220" height="40" as="geometry" />
        </mxCell>
        <mxCell id="-9yBFDYetZPaC8PrOKNb-78" value="dnnv5+城市分组考虑" style="rounded=0;whiteSpace=wrap;html=1;" vertex="1" parent="1">
          <mxGeometry x="670" y="600" width="120" height="60" as="geometry" />
        </mxCell>
        <mxCell id="-9yBFDYetZPaC8PrOKNb-79" value="2022.04.27" style="rounded=0;whiteSpace=wrap;html=1;" vertex="1" parent="1">
          <mxGeometry x="600" y="600" width="70" height="60" as="geometry" />
        </mxCell>
        <UserObject label="https://km.sankuai.com/page/1325849191" link="https://km.sankuai.com/page/1325849191" id="-9yBFDYetZPaC8PrOKNb-80">
          <mxCell style="rounded=0;whiteSpace=wrap;html=1;" vertex="1" parent="1">
            <mxGeometry x="790" y="610" width="220" height="40" as="geometry" />
          </mxCell>
        </UserObject>
        <mxCell id="-9yBFDYetZPaC8PrOKNb-81" value="dnnv8+用户豁免+&lt;br&gt;城市分组考虑" style="rounded=0;whiteSpace=wrap;html=1;" vertex="1" parent="1">
          <mxGeometry x="670" y="660" width="120" height="60" as="geometry" />
        </mxCell>
        <mxCell id="-9yBFDYetZPaC8PrOKNb-82" value="2022.05.10" style="rounded=0;whiteSpace=wrap;html=1;" vertex="1" parent="1">
          <mxGeometry x="600" y="660" width="70" height="60" as="geometry" />
        </mxCell>
        <UserObject label="https://km.sankuai.com/page/1319150376" link="https://km.sankuai.com/page/1325849191" id="-9yBFDYetZPaC8PrOKNb-83">
          <mxCell style="rounded=0;whiteSpace=wrap;html=1;" vertex="1" parent="1">
            <mxGeometry x="790" y="670" width="220" height="40" as="geometry" />
          </mxCell>
        </UserObject>
        <mxCell id="-9yBFDYetZPaC8PrOKNb-84" value="dnnv8+小程序v1/v2/v3" style="rounded=0;whiteSpace=wrap;html=1;" vertex="1" parent="1">
          <mxGeometry x="670" y="820" width="120" height="60" as="geometry" />
        </mxCell>
        <mxCell id="-9yBFDYetZPaC8PrOKNb-85" value="2022.05.30-07.30" style="rounded=0;whiteSpace=wrap;html=1;" vertex="1" parent="1">
          <mxGeometry x="600" y="820" width="70" height="60" as="geometry" />
        </mxCell>
        <UserObject label="https://km.sankuai.com/page/1307601778" link="https://km.sankuai.com/page/1325849191" id="-9yBFDYetZPaC8PrOKNb-86">
          <mxCell style="rounded=0;whiteSpace=wrap;html=1;" vertex="1" parent="1">
            <mxGeometry x="790" y="830" width="220" height="40" as="geometry" />
          </mxCell>
        </UserObject>
        <mxCell id="-9yBFDYetZPaC8PrOKNb-87" value="dnnv8+修改目的地" style="rounded=0;whiteSpace=wrap;html=1;" vertex="1" parent="1">
          <mxGeometry x="670" y="740" width="120" height="60" as="geometry" />
        </mxCell>
        <mxCell id="-9yBFDYetZPaC8PrOKNb-88" value="2022.05.25" style="rounded=0;whiteSpace=wrap;html=1;" vertex="1" parent="1">
          <mxGeometry x="600" y="740" width="70" height="60" as="geometry" />
        </mxCell>
        <UserObject label="https://km.sankuai.com/page/1319150376" link="https://km.sankuai.com/page/1325849191" id="-9yBFDYetZPaC8PrOKNb-89">
          <mxCell style="rounded=0;whiteSpace=wrap;html=1;" vertex="1" parent="1">
            <mxGeometry x="790" y="750" width="220" height="40" as="geometry" />
          </mxCell>
        </UserObject>
        <mxCell id="-9yBFDYetZPaC8PrOKNb-90" value="dnnv8+新客" style="rounded=0;whiteSpace=wrap;html=1;" vertex="1" parent="1">
          <mxGeometry x="670" y="890" width="120" height="60" as="geometry" />
        </mxCell>
        <mxCell id="-9yBFDYetZPaC8PrOKNb-91" value="2022.06.13" style="rounded=0;whiteSpace=wrap;html=1;" vertex="1" parent="1">
          <mxGeometry x="600" y="890" width="70" height="60" as="geometry" />
        </mxCell>
        <UserObject label="https://km.sankuai.com/page/1317795840" link="https://km.sankuai.com/page/1325849191" id="-9yBFDYetZPaC8PrOKNb-92">
          <mxCell style="rounded=0;whiteSpace=wrap;html=1;" vertex="1" parent="1">
            <mxGeometry x="790" y="900" width="220" height="40" as="geometry" />
          </mxCell>
        </UserObject>
        <mxCell id="-9yBFDYetZPaC8PrOKNb-93" value="dnnv8+新客+小程序&lt;br&gt;+先用后付豁免" style="rounded=0;whiteSpace=wrap;html=1;" vertex="1" parent="1">
          <mxGeometry x="670" y="970" width="120" height="60" as="geometry" />
        </mxCell>
        <mxCell id="-9yBFDYetZPaC8PrOKNb-94" value="2022.07.13" style="rounded=0;whiteSpace=wrap;html=1;" vertex="1" parent="1">
          <mxGeometry x="600" y="970" width="70" height="60" as="geometry" />
        </mxCell>
        <UserObject label="https://km.sankuai.com/page/1234993729" link="https://km.sankuai.com/page/1325849191" id="-9yBFDYetZPaC8PrOKNb-95">
          <mxCell style="rounded=0;whiteSpace=wrap;html=1;" vertex="1" parent="1">
            <mxGeometry x="790" y="980" width="220" height="40" as="geometry" />
          </mxCell>
        </UserObject>
      </root>
    </mxGraphModel>
  </diagram>
</mxfile>
